/* XPM */
static char * argologo128x128c_xpm[] = {
"128 128 2 1",
" 	c None",
".	c #336699",
"                                                                                                                                ",
"                                                                                                                                ",
"                                                                                                                                ",
"                                                                                                                                ",
"                                                                                                                                ",
"                                                                                                                                ",
"                                                                                                                                ",
"                                                                                                                                ",
"                                                                                                                                ",
"                                                                                                                                ",
"                                                                                                                                ",
"                                                                                                                                ",
"                                                                                                                                ",
"                                                                                                                                ",
"                                                                                                                                ",
"                                                            .     .....                                                         ",
"                                                          ....   ...........                                                    ",
"                                                          .....   ..............                                                ",
"                                                          ......    ..............                                              ",
"                                                          ......     ...............                                            ",
"                                                          .......      ...............                                          ",
"                                                          .......       ................                                        ",
"                                                          ........       .................                                      ",
"                                                          ........        ..................                                    ",
"                                                          .........        ...................                                  ",
"                                                         ..........         ....................                                ",
"                                                         ...........         .....................                              ",
"                                                         ...........          ......................                            ",
"                                                         ...........           ......................                           ",
"                                                         ............           ......................                          ",
"                                                         ............            ......................                         ",
"                                                         ............             ......................                        ",
"                                                         .............             .......................                      ",
"                                                        ..............              .......................                     ",
"                                                        ..............              ........................                    ",
"                                                        ...............              ........................                   ",
"                                                       ................               ........................                  ",
"                                                       .................               ........................                 ",
"                                                      ..................                ........................                ",
"                                                      ..................                 ........................               ",
"                                                      ..................                  ........................              ",
"                                                     ...................                   ........................             ",
"                                                     ...................                    ........................            ",
"                                                    .....................                    ........................           ",
"                                                    .....................                    .........................          ",
"                                                    .....................                     .........................         ",
"                                                   ......................                      ........................         ",
"                                                   ......................                       ........................        ",
"                                                  ........................                       ........................       ",
"                                                  ........................                       ........................       ",
"                                                 .........................                        ........................      ",
"                                                 .........................                        .........................     ",
"                                                ..........................                        .........................     ",
"                                                ..........................                        ..........................    ",
"                                               ...........................                        ..........................    ",
"                                              ............................                        ...........................   ",
"                                             .............................                         ..........................   ",
"                                            .............................                          ..........................   ",
"                                           ..............................                          ...........................  ",
"                                           ..............................                          ...........................  ",
"                                          ...............................                          ...........................  ",
"                                         ................................                          ...........................  ",
"                                         ................................                          ............................ ",
"                                        ................................                           ............................ ",
"                                       .................................                          ............................. ",
"                                      ..................................                          ............................. ",
"                                     ..................................                           ............................. ",
"                                   ....................................                          ...............................",
"                                  .....................................                          ...............................",
"                                 .....................................                           ...............................",
"                                ......................................                          ................................",
"                              ........................................                          ................................",
"                             ........................................                          .................................",
"                           ..........................................                          .................................",
"                         ...........................................                          ..................................",
"                      ..............................................                         ...................................",
"                    ...............................................                         ....................................",
"                 ..................................................                       ......................................",
"               ...................................................                       .......................................",
"            ......................................................                     ........................................ ",
"         ........................................................                     ......................................... ",
"      ...........................................................                   ........................................... ",
"   .............................................................                  ............................................  ",
"...............................................................                 ..............................................  ",
"..............................................................               ................................................   ",
".............................................................             ..................................................    ",
"...........................................................              ..................................................     ",
"                                                                                                                                ",
"                                                                                                                                ",
"                                                                                                                                ",
"..............................................................................................................................  ",
"..............................................................................................................................  ",
"..............................................................................................................................  ",
".............................................................................................................................   ",
".............................................................................................................................   ",
"............................................................................................................................    ",
"............................................................................................................................    ",
"...........................................................................................................................     ",
"...........................................................................................................................     ",
"..........................................................................................................................      ",
"..........................................................................................................................      ",
".........................................................................................................................       ",
"........................................................................................................................        ",
".......................................................................................................................         ",
"......................................................................................................................          ",
"....................................................................................................................            ",
"..................................................................................................................              ",
"  ..............................................................................................................                ",
"   ...........................................................................................................                  ",
"   .........................................................................................................                    ",
"    ......................................................................................................                      ",
"     ..................................................................................................                         ",
"      ...............................................................................................                           ",
"       ...........................................................................................                              ",
"         .....................................................................................                                  ",
"             .............................................................................                                      ",
"                     ............................................................                                               ",
"                                                                                                                                ",
"                                                                                                                                ",
"                                                                                                                                ",
"                                                                                                                                ",
"                                                                                                                                ",
"                                                                                                                                ",
"                                                                                                                                ",
"                                                                                                                                ",
"                                                                                                                                ",
"                                                                                                                                ",
"                                                                                                                                "};
