/* XPM */
static char * argologo64x64c_xpm[] = {
"64 64 2 1",
" 	c None",
".	c #336699",
"                                                                ",
"                                                                ",
"                                                                ",
"                                                                ",
"                                                                ",
"                                                                ",
"                                                                ",
"                             .   .....                          ",
"                            ...  ........                       ",
"                            ....  .........                     ",
"                            ....   ..........                   ",
"                            .....   ...........                 ",
"                            .....    ............               ",
"                           .......    ............              ",
"                           .......     ............             ",
"                           ........     .............           ",
"                          .........      .............          ",
"                          ..........      .............         ",
"                          ..........       .............        ",
"                         ...........        .............       ",
"                         ...........         .............      ",
"                         ............         .............     ",
"                        .............         ..............    ",
"                        .............          .............    ",
"                       ...............          .............   ",
"                       ...............          .............   ",
"                      ................          ..............  ",
"                      ................          ..............  ",
"                     .................           .............  ",
"                     .................           .............. ",
"                    ..................           .............. ",
"                   ..................            .............. ",
"                  ...................           ................",
"                 ....................           ................",
"                ....................            ................",
"              ......................           .................",
"            ........................           .................",
"          .........................           ..................",
"       ............................         ....................",
"    ..............................         .....................",
" ................................        ...................... ",
"................................      ......................... ",
"...............................      .........................  ",
"                                                                ",
"                                                                ",
"............................................................... ",
"............................................................... ",
"..............................................................  ",
"..............................................................  ",
".............................................................   ",
"............................................................    ",
"...........................................................     ",
"..........................................................      ",
"........................................................        ",
" .....................................................          ",
"  ..................................................            ",
"   ..............................................               ",
"    ..........................................                  ",
"                                                                ",
"                                                                ",
"                                                                ",
"                                                                ",
"                                                                ",
"                                                                "};
