/* XPM */
static char * argologo32x32c_xpm[] = {
"32 32 2 1",
" 	c None",
".	c #336699",
"                                ",
"                                ",
"                                ",
"              .  ....           ",
"             ... .....          ",
"             ... .......        ",
"             .... ........      ",
"             ....  ........     ",
"            ......  ........    ",
"            ......   ........   ",
"            ......    ........  ",
"           ........    .......  ",
"           ........    ........ ",
"          .........    ........ ",
"         ..........    ........ ",
"        ...........    .........",
"       ............    .........",
"     .............     .........",
"   ...............    ..........",
" ................   ............",
"................   ............ ",
"                                ",
"............................... ",
"............................... ",
"..............................  ",
".............................   ",
"............................    ",
" .........................      ",
"  .....................         ",
"                                ",
"                                ",
"                                "};
